<svg width="406" height="93" viewBox="0 0 406 93" fill="none" xmlns="http://www.w3.org/2000/svg">
<path d="M117.12 63V33.6H124.6C127 33.6 128.893 33.84 130.28 34.32C131.693 34.8 132.733 35.4133 133.4 36.16C134.093 36.9067 134.547 37.6933 134.76 38.52C134.973 39.3467 135.08 40.12 135.08 40.84C135.08 41.6133 134.96 42.4267 134.72 43.28C134.507 44.1067 134.133 44.88 133.6 45.6C133.067 46.2933 132.333 46.8533 131.4 47.28C133.4 47.7867 134.813 48.6667 135.64 49.92C136.493 51.1467 136.92 52.52 136.92 54.04C136.92 55.08 136.8 56.1333 136.56 57.2C136.32 58.2667 135.813 59.24 135.04 60.12C134.293 60.9733 133.16 61.6667 131.64 62.2C130.12 62.7333 128.08 63 125.52 63H117.12ZM121.52 46.08H125.32C126.707 46.08 127.773 45.8533 128.52 45.4C129.267 44.92 129.787 44.3067 130.08 43.56C130.4 42.8133 130.56 42.0267 130.56 41.2C130.56 40.5067 130.4 39.88 130.08 39.32C129.787 38.7333 129.24 38.2667 128.44 37.92C127.667 37.5733 126.56 37.4 125.12 37.4H121.52V46.08ZM121.52 59.24H126.12C127.48 59.24 128.56 59.08 129.36 58.76C130.187 58.44 130.813 58.0267 131.24 57.52C131.667 57.0133 131.947 56.4667 132.08 55.88C132.213 55.2667 132.28 54.6667 132.28 54.08C132.28 52.6933 131.813 51.6133 130.88 50.84C129.947 50.04 128.48 49.64 126.48 49.64H121.52V59.24ZM151.609 63.4C149.689 63.4 147.996 62.9733 146.529 62.12C145.089 61.2667 143.969 60.1067 143.169 58.64C142.369 57.1733 141.969 55.5467 141.969 53.76C141.969 52 142.356 50.4 143.129 48.96C143.929 47.4933 145.049 46.3333 146.489 45.48C147.929 44.6 149.636 44.16 151.609 44.16C153.583 44.16 155.289 44.6 156.729 45.48C158.169 46.3333 159.276 47.4933 160.049 48.96C160.823 50.4 161.209 52 161.209 53.76C161.209 55.5467 160.809 57.1733 160.009 58.64C159.236 60.1067 158.129 61.2667 156.689 62.12C155.249 62.9733 153.556 63.4 151.609 63.4ZM151.729 59.88C153.329 59.88 154.556 59.2933 155.409 58.12C156.289 56.9467 156.729 55.52 156.729 53.84C156.729 52.6933 156.516 51.6667 156.089 50.76C155.663 49.8267 155.049 49.08 154.249 48.52C153.476 47.96 152.556 47.68 151.489 47.68C150.449 47.68 149.556 47.96 148.809 48.52C148.063 49.08 147.476 49.8267 147.049 50.76C146.649 51.6667 146.449 52.6933 146.449 53.84C146.449 54.96 146.676 55.9867 147.129 56.92C147.583 57.8267 148.196 58.5467 148.969 59.08C149.769 59.6133 150.689 59.88 151.729 59.88ZM175.905 63.4C173.985 63.4 172.291 62.9733 170.825 62.12C169.385 61.2667 168.265 60.1067 167.465 58.64C166.665 57.1733 166.265 55.5467 166.265 53.76C166.265 52 166.651 50.4 167.425 48.96C168.225 47.4933 169.345 46.3333 170.785 45.48C172.225 44.6 173.931 44.16 175.905 44.16C177.878 44.16 179.585 44.6 181.025 45.48C182.465 46.3333 183.571 47.4933 184.345 48.96C185.118 50.4 185.505 52 185.505 53.76C185.505 55.5467 185.105 57.1733 184.305 58.64C183.531 60.1067 182.425 61.2667 180.985 62.12C179.545 62.9733 177.851 63.4 175.905 63.4ZM176.025 59.88C177.625 59.88 178.851 59.2933 179.705 58.12C180.585 56.9467 181.025 55.52 181.025 53.84C181.025 52.6933 180.811 51.6667 180.385 50.76C179.958 49.8267 179.345 49.08 178.545 48.52C177.771 47.96 176.851 47.68 175.785 47.68C174.745 47.68 173.851 47.96 173.105 48.52C172.358 49.08 171.771 49.8267 171.345 50.76C170.945 51.6667 170.745 52.6933 170.745 53.84C170.745 54.96 170.971 55.9867 171.425 56.92C171.878 57.8267 172.491 58.5467 173.265 59.08C174.065 59.6133 174.985 59.88 176.025 59.88ZM191.453 63V33.6H195.733V63H191.453ZM211.451 63.4C209.158 63.4 207.291 62.96 205.851 62.08C204.411 61.1733 203.358 59.9867 202.691 58.52C202.025 57.0533 201.691 55.4933 201.691 53.84C201.691 51.84 202.091 50.12 202.891 48.68C203.718 47.24 204.851 46.1333 206.291 45.36C207.731 44.56 209.358 44.16 211.171 44.16C214.078 44.16 216.198 44.9733 217.531 46.6C218.865 48.2 219.531 50.36 219.531 53.08C219.531 53.8 219.491 54.5467 219.411 55.32H206.211C206.505 56.9733 207.091 58.16 207.971 58.88C208.878 59.5733 210.078 59.92 211.571 59.92C213.011 59.92 214.145 59.7867 214.971 59.52C215.798 59.2533 216.478 58.9867 217.011 58.72L218.331 61.8C217.798 62.1467 216.971 62.5067 215.851 62.88C214.731 63.2267 213.265 63.4 211.451 63.4ZM206.211 52.32H215.331C215.358 50.5867 214.971 49.4 214.171 48.76C213.371 48.12 212.331 47.8 211.051 47.8C209.718 47.8 208.625 48.16 207.771 48.88C206.945 49.5733 206.425 50.72 206.211 52.32ZM233.78 63.4C232.154 63.4 230.634 63.0133 229.22 62.24C227.834 61.4667 226.714 60.36 225.86 58.92C225.007 57.48 224.58 55.76 224.58 53.76C224.58 51.84 224.94 50.16 225.66 48.72C226.407 47.28 227.447 46.16 228.78 45.36C230.14 44.56 231.754 44.16 233.62 44.16C234.74 44.16 235.754 44.36 236.66 44.76C237.594 45.1333 238.367 45.6 238.98 46.16C239.62 46.6933 240.047 47.2133 240.26 47.72L240.34 44.64H244.46V63H240.38L240.3 59.76C240.034 60.3467 239.58 60.92 238.94 61.48C238.327 62.04 237.58 62.5067 236.7 62.88C235.82 63.2267 234.847 63.4 233.78 63.4ZM234.5 59.8C235.487 59.8 236.38 59.5733 237.18 59.12C238.007 58.64 238.66 57.9733 239.14 57.12C239.647 56.2667 239.9 55.2533 239.9 54.08V53.8C239.9 52.6 239.647 51.56 239.14 50.68C238.66 49.7733 238.007 49.08 237.18 48.6C236.38 48.0933 235.487 47.84 234.5 47.84C232.714 47.84 231.367 48.4133 230.46 49.56C229.58 50.7067 229.14 52.12 229.14 53.8C229.14 55.5067 229.58 56.9333 230.46 58.08C231.367 59.2267 232.714 59.8 234.5 59.8ZM251.206 63V44.64H255.446L255.486 48C255.966 46.9067 256.739 46 257.806 45.28C258.899 44.5333 260.206 44.16 261.726 44.16C263.699 44.16 265.179 44.5733 266.166 45.4C267.152 46.2 267.806 47.3467 268.126 48.84C268.472 50.3333 268.646 52.1067 268.646 54.16V63H264.326V54.28C264.326 52.1467 264.112 50.52 263.686 49.4C263.286 48.28 262.339 47.72 260.846 47.72C260.072 47.72 259.272 47.96 258.446 48.44C257.619 48.92 256.926 49.6133 256.366 50.52C255.806 51.4267 255.526 52.5467 255.526 53.88V63H251.206ZM290.733 63L283.653 49.28L281.813 45.12L280.973 49.28L278.253 63H273.813L279.893 33.6H280.373L288.453 49.48L290.853 54.8L293.253 49.48L301.173 33.6H301.613L307.933 63H303.533L300.573 49.28L299.693 45.12L298.093 49.28L290.973 63H290.733ZM321.158 63.4C319.532 63.4 318.012 63.0133 316.598 62.24C315.212 61.4667 314.092 60.36 313.238 58.92C312.385 57.48 311.958 55.76 311.958 53.76C311.958 51.84 312.318 50.16 313.038 48.72C313.785 47.28 314.825 46.16 316.158 45.36C317.518 44.56 319.132 44.16 320.998 44.16C322.118 44.16 323.132 44.36 324.038 44.76C324.972 45.1333 325.745 45.6 326.358 46.16C326.998 46.6933 327.425 47.2133 327.638 47.72L327.718 44.64H331.838V63H327.758L327.678 59.76C327.412 60.3467 326.958 60.92 326.318 61.48C325.705 62.04 324.958 62.5067 324.078 62.88C323.198 63.2267 322.225 63.4 321.158 63.4ZM321.878 59.8C322.865 59.8 323.758 59.5733 324.558 59.12C325.385 58.64 326.038 57.9733 326.518 57.12C327.025 56.2667 327.278 55.2533 327.278 54.08V53.8C327.278 52.6 327.025 51.56 326.518 50.68C326.038 49.7733 325.385 49.08 324.558 48.6C323.758 48.0933 322.865 47.84 321.878 47.84C320.092 47.84 318.745 48.4133 317.838 49.56C316.958 50.7067 316.518 52.12 316.518 53.8C316.518 55.5067 316.958 56.9333 317.838 58.08C318.745 59.2267 320.092 59.8 321.878 59.8ZM340.457 63V48.16H337.217V44.64H340.457V37.16L344.817 36.2V44.64H349.057V48.16H344.817V63H340.457ZM354.368 63V33.6H358.568V44.64L358.408 48.04C358.888 46.9467 359.675 46.0267 360.768 45.28C361.888 44.5333 363.221 44.16 364.768 44.16C366.741 44.16 368.221 44.5733 369.208 45.4C370.195 46.2 370.848 47.3467 371.168 48.84C371.515 50.3333 371.688 52.1067 371.688 54.16V63H367.408V54.12C367.408 51.9867 367.195 50.4 366.768 49.36C366.341 48.32 365.368 47.8 363.848 47.8C363.101 47.8 362.315 48.04 361.488 48.52C360.688 48.9733 360.008 49.6533 359.448 50.56C358.888 51.44 358.608 52.5467 358.608 53.88V63H354.368ZM384.471 63.4C383.618 63.4 382.724 63.32 381.791 63.16C380.884 63 380.044 62.8 379.271 62.56C378.524 62.2933 377.951 62.0133 377.551 61.72L378.991 58.32C379.444 58.64 380.124 59 381.031 59.4C381.964 59.8 383.111 60 384.471 60C385.671 60 386.484 59.8267 386.911 59.48C387.338 59.1067 387.551 58.68 387.551 58.2C387.551 57.6933 387.364 57.3067 386.991 57.04C386.644 56.7467 386.138 56.48 385.471 56.24C384.804 56 384.018 55.7067 383.111 55.36C382.231 54.9867 381.391 54.56 380.591 54.08C379.791 53.5733 379.138 52.96 378.631 52.24C378.151 51.4933 377.911 50.5867 377.911 49.52C377.911 47.7867 378.578 46.4667 379.911 45.56C381.244 44.6267 383.004 44.16 385.191 44.16C386.311 44.16 387.391 44.28 388.431 44.52C389.498 44.76 390.298 45.0667 390.831 45.44L389.271 48.88C388.951 48.56 388.418 48.2667 387.671 48C386.951 47.7333 386.084 47.6 385.071 47.6C383.178 47.6 382.231 48.1733 382.231 49.32C382.231 49.88 382.431 50.3333 382.831 50.68C383.258 51 383.804 51.28 384.471 51.52C385.164 51.7333 385.911 52 386.711 52.32C388.338 52.96 389.578 53.7067 390.431 54.56C391.311 55.3867 391.751 56.4933 391.751 57.88C391.751 59.1333 391.418 60.1733 390.751 61C390.084 61.8267 389.191 62.44 388.071 62.84C386.978 63.2133 385.778 63.4 384.471 63.4Z" fill="#5347CE"/>
<path d="M43 1V44H1V7C1 3.68629 3.68629 1 7 1H43Z" fill="#5347CE" stroke="#5347CE" stroke-width="2"/>
<path d="M85 1C88.3137 1 91 3.68629 91 7V44H49V1H85Z" fill="#5347CE" stroke="#5347CE" stroke-width="2"/>
<path d="M43 49V92H7C3.68629 92 1 89.3137 1 86V49H43Z" fill="#5347CE" stroke="#5347CE" stroke-width="2"/>
<path d="M91 49V86C91 89.3137 88.3137 92 85 92H49V49H91Z" fill="#5347CE" stroke="#5347CE" stroke-width="2"/>
<path d="M28.8571 24.1429H23.1429V29.8571C23.1429 30.1602 23.0224 30.4509 22.8081 30.6653C22.5938 30.8796 22.3031 31 22 31C21.6969 31 21.4062 30.8796 21.1919 30.6653C20.9776 30.4509 20.8571 30.1602 20.8571 29.8571V24.1429H15.1429C14.8398 24.1429 14.5491 24.0224 14.3347 23.8081C14.1204 23.5938 14 23.3031 14 23C14 22.6969 14.1204 22.4062 14.3347 22.1919C14.5491 21.9776 14.8398 21.8571 15.1429 21.8571H20.8571V16.1429C20.8571 15.8398 20.9776 15.5491 21.1919 15.3347C21.4062 15.1204 21.6969 15 22 15C22.3031 15 22.5938 15.1204 22.8081 15.3347C23.0224 15.5491 23.1429 15.8398 23.1429 16.1429V21.8571H28.8571C29.1602 21.8571 29.4509 21.9776 29.6653 22.1919C29.8796 22.4062 30 22.6969 30 23C30 23.3031 29.8796 23.5938 29.6653 23.8081C29.4509 24.0224 29.1602 24.1429 28.8571 24.1429Z" fill="white"/>
<path d="M76.8571 24H63.1429C62.8398 24 62.5491 23.8946 62.3347 23.7071C62.1204 23.5196 62 23.2652 62 23C62 22.7348 62.1204 22.4804 62.3347 22.2929C62.5491 22.1054 62.8398 22 63.1429 22H76.8571C77.1602 22 77.4509 22.1054 77.6653 22.2929C77.8796 22.4804 78 22.7348 78 23C78 23.2652 77.8796 23.5196 77.6653 23.7071C77.4509 23.8946 77.1602 24 76.8571 24Z" fill="white"/>
<path d="M22 71L16 65M22 71L28 77M22 71L28 65M22 71L16 77" stroke="white" stroke-width="2" stroke-linecap="round" stroke-linejoin="round"/>
<path fill-rule="evenodd" clip-rule="evenodd" d="M63 67.125C63 66.8266 63.1229 66.5405 63.3417 66.3295C63.5605 66.1185 63.8572 66 64.1667 66H75.8333C76.1428 66 76.4395 66.1185 76.6583 66.3295C76.8771 66.5405 77 66.8266 77 67.125C77 67.4234 76.8771 67.7095 76.6583 67.9205C76.4395 68.1315 76.1428 68.25 75.8333 68.25H64.1667C63.8572 68.25 63.5605 68.1315 63.3417 67.9205C63.1229 67.7095 63 67.4234 63 67.125ZM63 73.875C63 73.5766 63.1229 73.2905 63.3417 73.0795C63.5605 72.8685 63.8572 72.75 64.1667 72.75H75.8333C76.1428 72.75 76.4395 72.8685 76.6583 73.0795C76.8771 73.2905 77 73.5766 77 73.875C77 74.1734 76.8771 74.4595 76.6583 74.6705C76.4395 74.8815 76.1428 75 75.8333 75H64.1667C63.8572 75 63.5605 74.8815 63.3417 74.6705C63.1229 74.4595 63 74.1734 63 73.875Z" fill="white"/>
</svg>
